<svg xmlns="http://www.w3.org/2000/svg" viewBox="0 0 676.08 257.16"><defs><style>.cls-1{fill:none;}.cls-2{fill:#6fbe44;}.cls-3{fill:#71bf44;}</style></defs><title>LogisticsAsset 1</title><g id="Layer_2" data-name="Layer 2"><g id="Layer_1-2" data-name="Layer 1"><polygon class="cls-1" points="212.85 170.64 259.2 207.43 259.2 170.64 212.85 170.64"/><polygon class="cls-2" points="321.84 0 0 0 0 1.66 76.81 62.64 321.84 62.64 321.84 0"/><polygon class="cls-3" points="321.84 170.64 321.84 108 259.2 108 133.95 108 212.85 170.64 259.2 170.64 259.2 207.43 321.84 257.16 321.84 170.64"/><polygon class="cls-1" points="463.22 170.64 416.88 207.43 416.88 170.64 463.22 170.64"/><polygon class="cls-3" points="354.24 0 676.08 0 676.08 1.66 599.27 62.64 354.24 62.64 354.24 0"/><polygon class="cls-3" points="354.24 170.64 354.24 108 416.88 108 542.13 108 463.22 170.64 416.88 170.64 416.88 207.43 354.24 257.16 354.24 170.64"/></g></g></svg>